<?xml version="1.0" encoding="utf-8"?>
<!-- Generator: Adobe Illustrator 23.0.3, SVG Export Plug-In . SVG Version: 6.00 Build 0)  -->
<svg version="1.1" id="Capa_1" xmlns="http://www.w3.org/2000/svg" xmlns:xlink="http://www.w3.org/1999/xlink" x="0px" y="0px"
	 viewBox="0 0 32 32" style="enable-background:new 0 0 32 32;" xml:space="preserve">
<style type="text/css">
	.st0{fill:#00D9EF;}
	.st1{fill:#00D9EF;stroke:#FFFFFF;stroke-width:1.0039;stroke-miterlimit:10;}
</style>
<g>
	<path class="st0" d="M16,6.5c-6.1,0-11.7,3.3-15.7,8.8c-0.3,0.4-0.3,1.1,0,1.5c4.1,5.4,9.6,8.8,15.7,8.8s11.7-3.3,15.7-8.8
		c0.3-0.4,0.3-1.1,0-1.5C27.7,9.8,22.1,6.5,16,6.5z M16.4,22.7C12.4,23,9,19.6,9.3,15.6c0.2-3.4,2.9-6.1,6.3-6.3
		c4.1-0.3,7.4,3.1,7.2,7.2C22.5,19.8,19.8,22.5,16.4,22.7z M16.2,19.6c-2.2,0.1-4-1.7-3.8-3.8c0.1-1.8,1.6-3.3,3.4-3.4
		c2.2-0.1,4,1.7,3.8,3.8C19.5,18,18,19.5,16.2,19.6z"/>
</g>
<path class="st1" d="M25.6,4.5L4.7,25.5c-0.4,0.4-0.4,1.2,0,1.6l0.3,0.3c0.4,0.4,1.2,0.4,1.6,0L27.5,6.4c0.4-0.4,0.4-1.2,0-1.6
	l-0.3-0.3C26.8,4.1,26,4.1,25.6,4.5z"/>
</svg>
