<?xml version="1.0" encoding="utf-8"?>
<!-- Generator: Adobe Illustrator 23.0.3, SVG Export Plug-In . SVG Version: 6.00 Build 0)  -->
<svg version="1.1" id="Layer_1" xmlns="http://www.w3.org/2000/svg" xmlns:xlink="http://www.w3.org/1999/xlink" x="0px" y="0px"
	 viewBox="0 0 132 132" style="enable-background:new 0 0 132 132;" xml:space="preserve">
<style type="text/css">
	.st0{fill:#00D9EF;}
	.st1{fill:#E5EBEB;}
	.st2{fill:#91AFB0;}
	.st3{fill:#BFA186;}
	.st4{fill:#333333;}
	.st5{fill:none;}
	.st6{fill:#C66F6B;}
	.st7{fill:#843025;}
	.st8{fill:#963731;}
	.st9{fill:#661410;}
	.st10{fill:#F9ED32;}
	.st11{fill:#F15A29;}
	.st12{fill:#F7941E;}
</style>
<path class="st0" d="M40,82.8l0.8-0.5c2.9-1.9,6.7-1.6,9.1,0.9c2.8,2.9,6.4,4.6,9.7,4.9c5.9,0.6,9.6-2.1,9.9-5.7
	c0.3-3.3-2.5-5-9.1-9.6c-8.2-5.6-17.3-11.2-16.1-22.6c1.3-13.2,13.4-20.4,27.4-19c5.3,0.5,10.7,2.4,15,5.6c4.1,3,3.9,9.1-0.4,11.8
	L85.7,49c-2.7,1.7-6.2,1.4-8.7-0.8c-2.5-2.3-5.1-3-7.4-3.3c-4.4-0.4-7.7,1.9-7.9,5.3c-0.2,2.8,1.5,5,7.2,9
	c10.2,7.1,19.5,11.4,18.4,22.7c-1.5,14.7-13.6,21.9-29.1,20.3c-6.8-0.7-13.8-3.3-19-8.1C35.7,90.9,36.2,85.4,40,82.8z"/>
<g id="kalem">
	<path class="st1" d="M50.1,94l10.8-20.7c-0.7-0.4-2.5-1.7-3.2-2.2L46.8,90.7C47.4,91.4,49.5,93.4,50.1,94z"/>
	<path class="st1" d="M50,93.4c-0.6-0.6-2.6-2-3.2-2.7l-9,16.5c0.7,0.6,2.8,1.9,3.5,2.4L50,93.4z"/>
	<path class="st1" d="M75.3,47.1l8.3-15.3c-0.6-0.2-3.2-1.3-3.8-1.5l-8.4,15.4C72.1,45.8,74.6,46.9,75.3,47.1z"/>
	<path class="st2" d="M54.8,96.4l10.5-20.1c-0.7-0.5-1.5-1.1-2.3-1.6c-0.7-0.4-1.4-1-2.1-1.5L49.7,93.5C51.3,94.7,53,95.7,54.8,96.4
		z"/>
	<path class="st2" d="M49.7,93.4L41,109.3c1.9,1.1,3.8,2.1,5.9,2.8l8-15.8C53.1,95.6,51.3,94.7,49.7,93.4z"/>
	<path class="st2" d="M75.1,47c1,0.7,2.4,2,3.1,3.2l8.6-16.9c-1.1-0.6-2.2-1.2-3.3-1.6L75.1,47z"/>
	<g>
		<path class="st1" d="M71.4,45.7l-6.2,10.7c0.5,0.4,2.7,2.1,3.3,2.5l6.8-11.7C74.6,46.9,72.1,45.8,71.4,45.7z"/>
	</g>
	<path class="st2" d="M37.8,107.1"/>
	<path class="st3" d="M37.9,107.1l-2.2,13.3c-0.1,0.6,0.6,0.9,1,0.6l10.2-8.9C46.9,112.1,41.9,110.1,37.9,107.1z"/>
	<path class="st2" d="M68.4,58.8c0.5,0.3,3.2,2.3,4,2.7l6.2-12.1c-1.2-1-2.4-1.8-3.5-2.4L68.4,58.8z"/>
	<path class="st4" d="M36.5,115.8l-0.7,4.6c-0.1,0.6,0.6,0.9,1,0.6l3.5-3.1C40.2,117.9,38.2,117,36.5,115.8z"/>
</g>
<g>
	<path class="st5" d="M90,24.3L89.2,26c-0.1,0.3-0.5,0.4-0.7,0.2l0.1,0.1l-0.4,0.9l-0.1-0.1c0.3,0.1,0.4,0.4,0.2,0.7l-0.5,1.1l0,0
		l-0.4,0.7c-0.1,0.3-0.5,0.4-0.7,0.2l0,0l0,0l0.2,0.1c0,0-0.1,0.4-0.3,0.7c2,0.4,4.1,0.4,6.3-0.3c3.8-1.3,6.4-4.9,6.3-9
		c0-1.3-0.3-2.6-0.8-3.8c-1,0.4-2.2,0.6-3.3,0.8c-0.7,0.1-1.3,0.4-1.8,0.7c-0.3,0.2-0.6,0.2-0.8,0.1l-1.9-1l2,1.1
		c-0.3,0.2-0.5,0.5-0.8,0.8l-0.1-0.1l0,0h-0.1c0.3,0.1,0.4,0.5,0.2,0.8c-0.1,0.2-0.2,0.3-0.3,0.5l-0.6,1.2c-0.1,0.3-0.5,0.4-0.7,0.2
		l0,0l0,0l0.1,0.1l-0.4,0.9l-0.1-0.1l0,0l-1.6-0.8l1.6,0.8C90,23.7,90.1,24,90,24.3z M88.7,29.6L88.7,29.6L88.7,29.6z"/>
	<path class="st6" d="M84.4,30.1l0.1-0.2l-1.6-0.8c-0.5-0.3-0.9-0.4-1.2-0.3c-0.1,0-0.2,0.2-0.2,0.4c0.6,0.2,1.2,0.4,1.8,0.6
		C83.6,29.9,84,30,84.4,30.1z"/>
	<path class="st6" d="M86.8,25.4l1.4-2.7l-2.3-1.2c-0.3-0.2-0.7,0-0.8,0.3l-0.8,1.6c-0.1,0.3,0,0.7,0.3,0.8l0,0l0,0L86.8,25.4z"/>
	<path class="st6" d="M84.2,25.2c-0.3-0.2-0.7,0-0.8,0.3l-0.8,1.6c-0.1,0.3,0,0.6,0.2,0.7l2.2,1.1l1.4-2.7L84.2,25.2z"/>
	<path class="st6" d="M92,10.8c-1.7,0.2-3.2,3.1-3.7,4l0,0L87.7,16c-0.2,0.4,0,0.8,0.3,1l2.3,1.2l3.7-7.1
		C93.3,10.9,92.6,10.8,92,10.8z"/>
	<path class="st6" d="M87.6,17.9c-0.3-0.2-0.7,0-0.8,0.3L86,19.8c-0.1,0.3,0,0.7,0.3,0.8l2.3,1.2l1.4-2.7L87.6,17.9z"/>
	<polygon class="st7" points="84.6,24.2 84.1,25.1 86.3,26.3 86.8,25.4 	"/>
	<polygon class="st7" points="84.6,24.2 84.6,24.2 86.8,25.4 	"/>
	<polygon class="st7" points="86.3,20.6 85.8,21.5 88.2,22.7 88.6,21.8 	"/>
	<polygon class="st7" points="90,19.1 90.5,18.2 88,16.9 87.6,17.9 87.6,17.9 87.6,17.9 	"/>
	<polygon class="st7" points="87.6,17.9 87.6,17.9 90,19.1 	"/>
	<path class="st7" d="M85,28.9l-2.2-1.1l-0.5,1l0.6,0.2c0.8,0.3,1.6,0.8,1.6,0.8L85,28.9z"/>
	<path class="st7" d="M82.9,29l1.6,0.8C84.5,29.9,83.7,29.4,82.9,29z"/>
	<path class="st8" d="M90.9,22.4l0.6-1.2c0.1-0.2,0.2-0.3,0.3-0.5c0.2-0.3,0.1-0.6-0.2-0.8l-1.5-0.8l-1.5,2.7l1.5,0.8
		C90.4,22.7,90.8,22.6,90.9,22.4z"/>
	<path class="st8" d="M84.5,29.9l-0.1,0.2c0.4,0.1,0.8,0.2,1.2,0.3L84.5,29.9z"/>
	<path class="st8" d="M93.2,19.2c0.6-0.4,1.2-0.6,1.8-0.7c1.1-0.2,2.4-0.4,3.3-0.8c-0.1-0.3-0.2-0.5-0.3-0.8
		c-0.9-2.3-3.1-5.1-3.9-5.7l0,0l0,0l0,0l-3.7,7.1l1.9,1C92.7,19.4,93,19.3,93.2,19.2z"/>
	<path class="st8" d="M88.4,26.2c0.3,0.1,0.6,0,0.7-0.2l0.8-1.7c0.1-0.3,0-0.6-0.2-0.7l-1.6-0.8l-1.4,2.7L88.4,26.2z"/>
	<path class="st8" d="M87.4,29.6l0.3-0.5l0,0l0.5-1.1c0.1-0.3,0-0.6-0.2-0.7l-1.7-0.9l-1.4,2.7l1.8,0.9C87,30,87.3,29.9,87.4,29.6z
		 M86.7,28.5L86.7,28.5L86.7,28.5z"/>
	<path class="st9" d="M86.9,30l-0.2-0.1l-0.3,0.7c0.1,0,0.2,0,0.3,0.1C86.8,30.4,86.9,30,86.9,30z"/>
	<path class="st9" d="M85.5,30.4c0.1,0,0.2,0,0.3,0.1l0,0c0.1,0,0.2,0.1,0.4,0.1L85,29l-0.5,0.9L85.5,30.4z"/>
	<path class="st9" d="M91.6,20l0.1,0.1c0.2-0.3,0.5-0.5,0.8-0.8l-2-1.1l1.9,1C92.1,19.4,91.8,19.7,91.6,20z"/>
	<polygon class="st9" points="89.9,23.6 90.3,22.7 90.2,22.6 89.7,23.5 	"/>
	<polygon class="st9" points="88.6,26.3 88.4,26.2 88.4,26.2 88.5,26.2 88,27.2 88,27.2 88,27.2 88.1,27.2 	"/>
	<polygon class="st9" points="86.8,25.4 88.4,26.2 88.4,26.2 	"/>
	<polygon class="st9" points="88,27.2 88,27.2 88,27.2 86.3,26.3 	"/>
	<polygon class="st9" points="91.5,19.9 91.5,19.9 91.6,20 91.6,20 90,19.1 	"/>
	<polygon class="st9" points="90,19.1 91.5,19.9 91.5,19.9 	"/>
	<path class="st9" d="M91.6,20c0.2-0.3,0.5-0.5,0.8-0.8l-1.9-1L90,19.1L91.6,20z"/>
	<path class="st9" d="M90.2,22.6L90.2,22.6L90.2,22.6z"/>
	<path class="st9" d="M89.7,23.5l-1.5-0.8L89.7,23.5z"/>
	<path class="st9" d="M90.2,22.6l-1.6-0.8L90.2,22.6z"/>
	<polygon class="st9" points="90.2,22.6 90.2,22.6 90.2,22.6 88.6,21.8 88.2,22.7 89.7,23.5 	"/>
	<path class="st9" d="M90.2,22.6l-1.6-0.8L90.2,22.6z"/>
	<polygon class="st9" points="86.7,29.9 86.7,29.9 86.7,29.9 85,28.9 	"/>
	<path class="st9" d="M86.7,29.9l-1.7-1L86.7,29.9z"/>
	<path class="st9" d="M86.4,30.6l0.3-0.7L84.9,29l1.2,1.6C86.2,30.6,86.3,30.6,86.4,30.6z"/>
	<polygon class="st9" points="88.5,26.2 88.4,26.2 88.4,26.2 86.8,25.4 86.3,26.3 88,27.2 	"/>
	<polygon class="st9" points="88.4,26.2 88.4,26.2 86.8,25.4 	"/>
	<path class="st9" d="M88,27.2l-1.7-0.9L88,27.2z"/>
	<path class="st10" d="M86.8,31c2.3,0.5,4.7,0.7,7.1-0.1c3.8-1.3,6.4-4.9,6.3-9c-0.1-1.5-0.5-3.2-1.1-4.6c-0.2,0.1-0.4,0.2-0.6,0.3
		c0.5,1.2,0.8,2.5,0.8,3.8c0.2,4.1-2.5,7.7-6.3,9c-2.1,0.7-4.2,0.7-6.3,0.3c-0.1,0.2-0.1,0.3-0.2,0.3c-0.7-0.2-1.5-0.4-2.2-0.6
		C85.1,30.6,85.9,30.8,86.8,31L86.8,31z"/>
	<path class="st10" d="M80.4,29c0.3,0.1,0.7,0.2,1,0.3c0,0,0,0,0.1,0c0,0,0-0.1,0-0.2c-0.3-0.1-0.7-0.2-1-0.3c0,0,0,0-0.1,0
		c-0.3-0.1-0.6-0.2-1-0.3c-4.2-1.3-7.8-2.2-12.2-1.8h0.1C71.8,26.4,76.2,27.7,80.4,29z"/>
	<path class="st10" d="M84.3,30.3l0.1-0.2c-0.4-0.1-0.7-0.2-1.1-0.3c-0.6-0.2-1.2-0.4-1.8-0.6c0,0.1,0,0.2,0,0.2
		C82.4,29.7,83.3,30,84.3,30.3z"/>
	<path class="st10" d="M85.5,30.4c-0.4-0.1-0.8-0.2-1.2-0.3l-0.1,0.2c0.7,0.2,1.5,0.4,2.2,0.6L85.5,30.4z"/>
	<path class="st10" d="M94.2,11.1L94.2,11.1c0.8,0.6,3,3.4,3.9,5.7c0.1,0.3,0.2,0.5,0.3,0.8c0.2-0.1,0.4-0.2,0.6-0.3
		C98.2,15,95,11.7,94.2,11.1z"/>
	<path class="st10" d="M86.6,30.7c-0.1,0-0.2,0-0.3-0.1h-0.1h-0.1c-0.1,0-0.2-0.1-0.4-0.1l0,0c-0.1,0-0.2,0-0.3-0.1l1,0.5
		C86.5,30.9,86.6,30.8,86.6,30.7z"/>
	<path class="st11" d="M105.2,22.1c-0.5-2.9-3.4-7.6-8.2-9.7c4.2,2.3,6.7,6.6,7.2,9.2c0.9,4.7-1.4,9.6-5.5,12
		c-4.3,2.6-8.9,1.8-13.3,0.2v0.1c0.3,0.1,0.7,0.3,1,0.4c4.4,1.6,9,2.4,13.3-0.2C103.8,31.6,106.1,26.8,105.2,22.1z"/>
	<path class="st11" d="M66.8,26.8c4.4,0.6,9.3,2.9,13.5,4.8v-0.1C75.9,29.6,71.5,27.5,66.8,26.8z"/>
	<path class="st12" d="M97,12.3L97,12.3c-0.8-0.5-1.8-0.9-2.9-1.2l0,0h0.1C95.3,11.4,96.2,11.8,97,12.3z"/>
	<path class="st12" d="M96.4,12c0.2,0.1,0.4,0.2,0.6,0.3c-0.8-0.5-1.7-0.8-2.7-1.1C95,11.4,95.7,11.7,96.4,12z"/>
	<path class="st12" d="M100.2,21.9c0.2,4.1-2.5,7.7-6.3,9c-2.4,0.8-4.8,0.7-7.1,0.1l0,0c-0.8-0.2-1.7-0.4-2.5-0.7
		c-0.9-0.3-1.9-0.6-2.8-0.9c0,0,0,0-0.1,0c-0.3-0.1-0.7-0.2-1-0.3c-4.2-1.3-8.6-2.7-13.1-2.3c4.5-0.3,9.9,1.5,14,2.8
		c0.3,0.1,0.7,0.2,1,0.3c0,0,0,0,0.1,0c0.9,0.3,1.9,0.6,2.8,0.9c0.8,0.3,1.7,0.5,2.5,0.7l0,0c2.3,0.5,4.7,0.7,7.1-0.1
		c3.8-1.3,6.4-4.9,6.3-9c-0.1-1.5-0.5-3.2-1.1-4.6c-0.1-0.3-0.3-0.6-0.4-0.9c-0.2,0.1-0.3,0.3-0.5,0.4
		C99.7,18.8,100.1,20.4,100.2,21.9z"/>
	<path class="st12" d="M94.2,11.1c0.8,0.6,4,3.9,4.9,6.2c0.2-0.1,0.4-0.3,0.5-0.4c-1.2-2.2-3.6-4.7-4.3-5.2c0.4,0.1,0.8,0.2,1.1,0.4
		c-0.7-0.4-1.4-0.7-2.1-0.9C94.2,11.1,94.2,11.1,94.2,11.1z"/>
	<path class="st12" d="M81.5,32.1c0.2,0.1,0.5,0.2,0.7,0.3c0.1,0.1,0.3,0.1,0.4,0.2c0.1,0.1,0.3,0.1,0.4,0.2c0.8,0.3,1.6,0.7,2.5,1
		c4.4,1.6,9,2.4,13.3-0.2c4.1-2.4,6.4-7.3,5.5-12c-0.5-2.6-3-6.9-7.2-9.2c0,0,0,0-0.1,0c4.9,10.4,3.3,6.4,3.5,9.1s0.2,6.7-5,9.3
		c-4.5,2.3-7.4,0.6-9.8,0.3c-0.9-0.3,0.5,0.1-0.3-0.3c-0.1-0.1-0.2-0.2-0.3-0.2c-0.3,0-0.3-0.1-0.5-0.2c-0.3,0,0.2,0.1-0.7-0.2
		c-0.4-0.2-1-0.2-1.4-0.4c-4.4-2-11.7-3-15.7-3.1c4.8,0.1,9.1,2.8,13.5,4.8C80.6,31.8,81.1,32,81.5,32.1z"/>
	<path class="st12" d="M99.6,16.9c0.5-0.5,0.7-1.2,0-2.2c-0.5-0.7-1.2-1.4-2-2c-0.4-0.3-0.8-0.5-1.2-0.7c-0.4-0.1-0.7-0.3-1.1-0.4
		C96,12.2,98.4,14.7,99.6,16.9z"/>
</g>
</svg>
