<svg id="Capa_1" data-name="Capa 1" xmlns="http://www.w3.org/2000/svg" viewBox="0 0 60 60"><defs><style>.cls-1{fill:#fff;}</style></defs><title>coins</title><path class="cls-1" d="M19.6,21.3l-.25.09,3.45.72a43.67,43.67,0,0,0,9,.89,45.85,45.85,0,0,0,4.74-.24,42.47,42.47,0,0,0,7.24-1.27l.27,0,0,0c6.82-1.9,11-5.28,11-8.42,0-4.42-8.6-9-23-9S9,8.58,9,13C9,16.08,13,19.37,19.6,21.3Zm8.86-4.4c-1.62-.53-2.55-1.44-2.75-2.7l-.1-.68-.68-.14a.92.92,0,0,1-.33-.12l.14-.46a1.26,1.26,0,0,1,.66-.37l.45-.13.19-.42a3.78,3.78,0,0,1,.82-1.19l.37-.36a2.11,2.11,0,0,0,.65-.87,10.1,10.1,0,0,0,3.44.39h.44c4.26,0,5.3,1.17,5.71,2.05l.19.41.44.13a1.41,1.41,0,0,1,.66.35l.15.48a1,1,0,0,1-.34.12l-.67.14-.11.68c-.2,1.26-1.12,2.17-2.74,2.7l-.78.25L34.48,19a1.86,1.86,0,0,0,1.25,1.47l.74.28-.74,0c-1.19.09-2.42.16-3.73.16a47.25,47.25,0,0,1-4.91-.25l.66-.24A1.82,1.82,0,0,0,29,19l.22-1.85ZM32,6c14,0,21,4.49,21,7,0,2.06-4.32,5.6-12.38,7.17l-4.17-1.56v-.1a5.26,5.26,0,0,0,3.19-3.38,2.16,2.16,0,0,0,1.06-.9,1.73,1.73,0,0,0,.17-1.42l-.19-.62a2.63,2.63,0,0,0-1.6-1.54c-1.48-2.5-4.85-2.81-7.32-2.81h-.51a7.84,7.84,0,0,1-2.86-.33,2.71,2.71,0,0,1-.62-.29,1.24,1.24,0,0,0-1.29-.09l-.61.34v.61a4.37,4.37,0,0,0,.06.68v0l-.05,0q-.18.15-.45.42a6.24,6.24,0,0,0-1,1.38,2.61,2.61,0,0,0-1.57,1.53l-.19.62a1.76,1.76,0,0,0,.16,1.42,2.23,2.23,0,0,0,1.07.9,5.21,5.21,0,0,0,3.19,3.38l0,.1-4.11,1.48C15.15,18.48,11,15,11,13,11,10.49,18,6,32,6Z" transform="translate(0 0)"/><path class="cls-1" d="M54,29.65V29.4c3.15-2.22,5-5,5-7.95V13C59,5.59,47.39,0,32,0S5,5.59,5,13v2.27C1.74,17.46,0,20.12,0,23v8.45c0,3.3,2.23,6.28,6,8.61v6.39C6,54.05,17.86,60,33,60s27-6,27-13.55V38C60,34.82,57.91,31.94,54,29.65ZM58,38c0,6.39-11.68,12-25,12q-.87,0-1.71,0l-.51,0-1.48-.09-.94-.09-.42,0c-8.23-.89-15.23-3.85-18.29-7.6L9.53,42,9.4,41.8A34.6,34.6,0,0,0,14,43.37C18.42,46.29,25.33,48,33,48c13.55,0,23-5.26,23-10,0-1.39-.84-2.77-2.45-4a1.87,1.87,0,0,0,.07-.22c0-.1.07-.2.1-.31l.09-.36c0-.11,0-.21.07-.32s0-.25,0-.37,0-.21,0-.32S54,32,54,32C56.05,33.38,58,35.39,58,38ZM37.13,51.84h.09l1.7-.17.43,0q.84-.11,1.65-.24v6c-1.29.2-2.63.37-4,.47v-6ZM43,51l.17,0,1.59-.37.2-.05,1-.28v6c-1,.27-2,.52-3,.74V51Zm5-1.38.16-.05.22-.08c.42-.15.82-.31,1.22-.47l.34-.14.06,0v6c-.64.28-1.3.54-2,.79v-6Zm4-1.69.51-.27.28-.16c.39-.22.77-.44,1.12-.67l.09-.05v5.83a20.08,20.08,0,0,1-2,1.24V47.94ZM12,46.79c.62.4,1.3.77,2,1.14v5.93a22.12,22.12,0,0,1-2-1.24Zm-6-15,.09.05c.36.23.73.45,1.11.67a2.69,2.69,0,0,1,.29.16l.51.27V38H6.56L6,37.62ZM10.4,34c.4.16.8.32,1.22.47l.22.08.16.05v6c-.7-.24-1.36-.5-2-.78v-6l.07,0Zm4.84,1.57,1.59.37L17,36v6l-.17,0c-.54-.11-1.07-.24-1.58-.37s-.84-.22-1.25-.33v-6l1,.28Zm5.84,1.06,1.7.17H23v6c-.69,0-1.37-.11-2.05-.19l-1-.13-1-.16v-6q.81.14,1.65.24ZM27,37c.67,0,1.34,0,2,0v6h-.06c-.64,0-1.29,0-1.94,0s-1.33,0-2-.06V37h.13C25.75,37,26.37,37,27,37ZM7,18.29l0,.06c.22.27.46.55.72.82l.17.17c.23.23.46.46.71.68l.18.16.17.14v5.57a6.56,6.56,0,0,1-2-4.44Zm4,3.5.09.05c.35.23.73.45,1.11.67a2.69,2.69,0,0,1,.29.16l.51.27v5.92a20.8,20.8,0,0,1-2-1.24V21.79Zm4,2.08.07,0,.33.14c.4.16.8.32,1.22.47l.22.08.16.05v6c-.69-.24-1.36-.5-2-.78v-6Zm4,1.4,1,.28.2.05,1.59.37L22,26v6c-1-.22-2-.47-3-.74v-6Zm5,1.1c.54.09,1.09.17,1.65.23l.43.06,1.7.17H28v6c-1.37-.11-2.71-.27-4-.48ZM32,27c.63,0,1.25,0,1.87,0H34v6c-.67,0-1.33.06-2,.06s-1.34,0-2,0V27h.13C30.75,27,31.37,27,32,27Zm4.22-.17,1.7-.17.43-.05q.84-.11,1.65-.24v6c-.38.06-.74.13-1.13.18l-.6.09c-.74.09-1.51.15-2.27.21v-6h.22Zm7.54-1.23.2-.05,1-.28v6l-.39.1h0l-.68.19q-.82.21-1.68.39L42,32V26l.17,0Zm3.62-1.1c.42-.15.82-.31,1.22-.47l.34-.14.06,0v6c-.64.28-1.3.54-2,.79v-6l.16-.06Zm4.41-2c.39-.22.77-.44,1.12-.67l.09-.05v5.82a20.11,20.11,0,0,1-2,1.25V22.94l.5-.27ZM24.53,44.94H25c.65,0,1.31,0,2,0l1.39,0h.91l.47,0,.54,0,.81,0,.58-.05.74-.07c.2,0,.39,0,.59-.06l.72-.08.58-.08.7-.1.57-.09.68-.11.57-.11.64-.13.57-.12.62-.14.55-.14.61-.15.53-.15L41,43.1l.52-.16.57-.18.5-.17.54-.19.49-.19.52-.2.47-.2.51-.22.44-.2.49-.24.42-.21.46-.24.41-.23.44-.25.38-.24.41-.27.36-.24.39-.28.34-.25.36-.29.31-.26.34-.29.29-.27.3-.31.27-.27.28-.32.23-.28.25-.33a3.06,3.06,0,0,0,.21-.29l.17-.24A3.32,3.32,0,0,1,54,38c0,2.7-7.41,8-21,8a43.42,43.42,0,0,1-10.18-1.12Q23.66,44.91,24.53,44.94ZM42,40.62v-6l.19-.07c.37-.13.74-.25,1.1-.39l.71-.31v6C43.36,40.11,42.7,40.37,42,40.62ZM37.78,35.8c.42-.09.85-.18,1.26-.29s.64-.19,1-.28v6c-1,.27-2,.52-3,.74V36ZM46,38.86V33.09c.69-.2,1.35-.42,2-.66v5.19A22.12,22.12,0,0,1,46,38.86Zm-14-2.1c.33,0,.65-.09,1-.12l1.44-.18.59-.11v6l-.25,0-.91.13-.7.09c-.52.07-1,.12-1.57.17l-.53,0h0v-6Zm20-5.31a5.47,5.47,0,0,1-.49,2.23l-.09.19a8.25,8.25,0,0,1-1.21,1.78l-.18.21,0,0V31.63c.7-.31,1.37-.64,2-1ZM16,48.86c.64.28,1.31.53,2,.77v6c-.7-.25-1.36-.51-2-.79Zm4,1.4c1,.28,2,.53,3,.75v6c-1-.22-2-.47-3-.74Zm5,1.11.48.07.72.1,1.14.14c.38,0,.76.08,1.15.12l.51.05v6c-1.37-.1-2.71-.26-4-.47ZM57,18.29v3.16a6.61,6.61,0,0,1-2,4.45V20.32l.17-.14.18-.16c.25-.22.48-.45.71-.68a1.37,1.37,0,0,0,.17-.17,10.83,10.83,0,0,0,.72-.82ZM32,2C46,2,57,6.83,57,13c0,6.39-11.68,12-25,12S7,19.39,7,13C7,6.83,18,2,32,2ZM5,17.73v3.72q0,.35,0,.69c0,.07,0,.15,0,.22a3.62,3.62,0,0,0,.06.46l.06.26c0,.14.06.27.1.4l.09.28c0,.13.09.25.13.38l.12.29c.06.12.11.24.16.35l.15.29.19.34.18.29c.07.11.14.22.22.33l.2.28.25.33.23.27.28.32.25.26c.1.11.21.21.31.31a3.45,3.45,0,0,0,.28.26l.33.3.3.25.37.29.31.24.4.29.33.23.44.28.34.21.49.29.33.19.63.33.23.12.9.43.33.14.62.27.4.16.59.23.44.16.58.21.47.15.59.19.5.14.6.18.51.13.62.16.53.12.63.15.54.11.65.13.56.1.67.11.56.08.69.1.57.07.72.09.56.06.75.06.56,0,.79,0,.54,0h.11c-.8,0-1.6.06-2.41.06C13.68,35,2,29.39,2,23A7.05,7.05,0,0,1,5,17.73ZM2,31.45V28.29l0,.06a10.72,10.72,0,0,0,.72.81l.17.18c.23.23.46.46.71.68l.18.16.17.14v5.57A6.52,6.52,0,0,1,2,31.45Zm6,15V43.29a13.6,13.6,0,0,0,2,2v5.58A6.56,6.56,0,0,1,8,46.45ZM31,58V52h.15c.61,0,1.23,0,1.85,0s1.25,0,1.87,0H35v6c-.66,0-1.33,0-2,0S31.66,58,31,58ZM58,43.29v3.16a6.61,6.61,0,0,1-2,4.45V45.32l.17-.14.18-.16c.25-.22.48-.45.71-.68l.17-.17a10.83,10.83,0,0,0,.72-.82Z" transform="translate(0 0)"/></svg>