<?xml version="1.0" encoding="utf-8"?>
<!-- Generator: Adobe Illustrator 23.0.3, SVG Export Plug-In . SVG Version: 6.00 Build 0)  -->
<svg version="1.1" id="Capa_1" xmlns="http://www.w3.org/2000/svg" xmlns:xlink="http://www.w3.org/1999/xlink" x="0px" y="0px"
	 viewBox="0 0 60 60" style="enable-background:new 0 0 60 60;" xml:space="preserve">
<style type="text/css">
	.st0{fill:#FFFFFF;}
</style>
<g>
	<path class="st0" d="M54,29.6v-0.3c3.2-2.2,5-5,5-7.9V13C59,5.6,47.4,0,32,0S5,5.6,5,13v2.3c-3.3,2.2-5,4.8-5,7.7v8.4
		c0,3.3,2.2,6.3,6,8.6v6.4C6,54,17.9,60,33,60s27-6,27-13.6V38C60,34.8,57.9,31.9,54,29.6z M58,38c0,6.4-11.7,12-25,12
		c-0.6,0-1.1,0-1.7,0c-0.2,0-0.3,0-0.5,0c-0.5,0-1-0.1-1.5-0.1c-0.3,0-0.6-0.1-0.9-0.1c-0.1,0-0.3,0-0.4,0
		c-8.2-0.9-15.2-3.9-18.3-7.6c0,0-0.1-0.1-0.1-0.2c0-0.1-0.1-0.1-0.1-0.2c1.4,0.6,2.9,1.1,4.6,1.6c4.4,2.9,11.3,4.6,19,4.6
		c13.6,0,23-5.3,23-10c0-1.4-0.8-2.8-2.4-4c0-0.1,0-0.1,0.1-0.2c0-0.1,0.1-0.2,0.1-0.3c0-0.1,0.1-0.2,0.1-0.4c0-0.1,0-0.2,0.1-0.3
		c0-0.1,0-0.2,0.1-0.4c0-0.1,0-0.2,0-0.3c0,0,0-0.1,0-0.1C56,33.4,58,35.4,58,38z M37.1,51.8C37.2,51.8,37.2,51.8,37.1,51.8
		c0.7-0.1,1.2-0.1,1.8-0.2c0.1,0,0.3,0,0.4-0.1c0.6-0.1,1.1-0.1,1.6-0.2v6c-1.3,0.2-2.6,0.4-4,0.5v-6C37,51.8,37.1,51.8,37.1,51.8z
		 M43,51c0.1,0,0.1,0,0.2,0c0.5-0.1,1.1-0.2,1.6-0.4c0.1,0,0.1,0,0.2-0.1c0.4-0.1,0.7-0.2,1-0.3v6c-1,0.3-2,0.5-3,0.7L43,51L43,51z
		 M48,49.6c0.1,0,0.1,0,0.2-0.1c0.1,0,0.1-0.1,0.2-0.1c0.4-0.1,0.8-0.3,1.2-0.5c0.1,0,0.2-0.1,0.3-0.1c0,0,0,0,0.1,0v6
		c-0.6,0.3-1.3,0.5-2,0.8L48,49.6L48,49.6z M52,47.9c0.2-0.1,0.3-0.2,0.5-0.3c0.1-0.1,0.2-0.1,0.3-0.2c0.4-0.2,0.8-0.4,1.1-0.7
		c0,0,0.1,0,0.1-0.1v5.8c-0.6,0.4-1.3,0.8-2,1.2L52,47.9L52,47.9z M12,46.8c0.6,0.4,1.3,0.8,2,1.1v5.9c-0.7-0.4-1.4-0.8-2-1.2V46.8z
		 M7,18.3C7,18.3,7,18.3,7,18.3c0.3,0.3,0.5,0.6,0.8,0.9c0.1,0.1,0.1,0.1,0.2,0.2c0.2,0.2,0.5,0.5,0.7,0.7c0.1,0.1,0.1,0.1,0.2,0.2
		c0.1,0,0.1,0.1,0.2,0.1v5.6c-1.3-1.4-2-2.9-2-4.4V18.3z M12.2,22.5c0.1,0.1,0.2,0.1,0.3,0.2c0.2,0.1,0.3,0.2,0.5,0.3v5.9
		c-0.7-0.4-1.4-0.8-2-1.2v-5.8c0,0,0.1,0,0.1,0.1C11.4,22.1,11.8,22.3,12.2,22.5z M15.4,24c0.4,0.2,0.8,0.3,1.2,0.5
		c0.1,0,0.1,0.1,0.2,0.1c0.1,0,0.1,0,0.2,0.1v6c-0.7-0.2-1.4-0.5-2-0.8v-6c0,0,0,0,0.1,0C15.2,23.9,15.3,24,15.4,24z M20.2,25.6
		c0.5,0.1,1.1,0.3,1.6,0.4c0.1,0,0.1,0,0.2,0v6c-1-0.2-2-0.5-3-0.7v-6c0.3,0.1,0.7,0.2,1,0.3C20.1,25.6,20.2,25.6,20.2,25.6z
		 M26.1,26.7c0.6,0.1,1.1,0.1,1.7,0.2c0,0,0.1,0,0.1,0c0,0,0.1,0,0.1,0v6c-1.4-0.1-2.7-0.3-4-0.5v-6c0.5,0.1,1.1,0.2,1.6,0.2
		C25.8,26.6,25.9,26.6,26.1,26.7z M32,27c0.6,0,1.2,0,1.9,0c0,0,0.1,0,0.1,0v6c-0.7,0-1.3,0.1-2,0.1c-0.7,0-1.3,0-2,0v-6
		c0,0,0.1,0,0.1,0C30.8,27,31.4,27,32,27z M36.2,26.8c0.6,0,1.1-0.1,1.7-0.2c0.1,0,0.3,0,0.4-0.1c0.6-0.1,1.1-0.1,1.6-0.2v6
		c-0.4,0.1-0.7,0.1-1.1,0.2c-0.2,0-0.4,0.1-0.6,0.1c-0.7,0.1-1.5,0.2-2.3,0.2v-6C36,26.8,36.1,26.8,36.2,26.8
		C36.2,26.8,36.2,26.8,36.2,26.8z M43.8,25.6c0.1,0,0.1,0,0.2-0.1c0.4-0.1,0.7-0.2,1-0.3v6c-0.1,0-0.3,0.1-0.4,0.1c0,0,0,0,0,0
		c-0.2,0.1-0.5,0.1-0.7,0.2c-0.6,0.1-1.1,0.3-1.7,0.4c-0.1,0-0.2,0-0.3,0.1v-6c0.1,0,0.1,0,0.2,0C42.7,25.9,43.2,25.7,43.8,25.6z
		 M47.4,24.5c0.4-0.1,0.8-0.3,1.2-0.5c0.1,0,0.2-0.1,0.3-0.1c0,0,0,0,0.1,0v6c-0.6,0.3-1.3,0.5-2,0.8v-6c0.1,0,0.1,0,0.2-0.1
		C47.2,24.6,47.3,24.5,47.4,24.5z M51.8,22.5c0.4-0.2,0.8-0.4,1.1-0.7c0,0,0.1,0,0.1-0.1v5.8c-0.6,0.4-1.3,0.9-2,1.2v-5.9
		c0.2-0.1,0.3-0.2,0.5-0.3C51.6,22.6,51.7,22.6,51.8,22.5z M10.1,33.9c0.1,0,0.2,0.1,0.3,0.1c0.4,0.2,0.8,0.3,1.2,0.5
		c0.1,0,0.1,0.1,0.2,0.1c0.1,0,0.1,0,0.2,0.1v6c-0.7-0.2-1.4-0.5-2-0.8L10.1,33.9C10,33.9,10,33.9,10.1,33.9z M15.2,35.6
		c0.5,0.1,1.1,0.3,1.6,0.4c0.1,0,0.1,0,0.2,0v6c-0.1,0-0.1,0-0.2,0c-0.5-0.1-1.1-0.2-1.6-0.4c-0.4-0.1-0.8-0.2-1.2-0.3v-6
		c0.3,0.1,0.7,0.2,1,0.3C15.1,35.6,15.2,35.6,15.2,35.6z M21.1,36.7c0.6,0.1,1.1,0.1,1.7,0.2c0,0,0.1,0,0.1,0c0,0,0.1,0,0.1,0v6
		c-0.7-0.1-1.4-0.1-2-0.2c-0.3,0-0.6-0.1-1-0.1c-0.3,0-0.7-0.1-1-0.2v-6c0.5,0.1,1.1,0.2,1.6,0.2C20.8,36.6,20.9,36.6,21.1,36.7z
		 M27,37c0.7,0,1.3,0,2,0v6c0,0,0,0-0.1,0c-0.6,0-1.3,0-1.9,0c-0.7,0-1.3,0-2-0.1v-6c0,0,0.1,0,0.1,0C25.8,37,26.4,37,27,37z
		 M33.8,42.5c-0.2,0-0.5,0.1-0.7,0.1c-0.5,0.1-1,0.1-1.6,0.2c-0.2,0-0.4,0-0.5,0c0,0,0,0,0,0v-6c0.3,0,0.7,0,1-0.1
		c0.3,0,0.7-0.1,1-0.1c0.5-0.1,1-0.1,1.4-0.2c0.2,0,0.4-0.1,0.6-0.1v6c-0.1,0-0.2,0-0.3,0C34.4,42.5,34.1,42.5,33.8,42.5z
		 M37.8,35.8c0.4-0.1,0.8-0.2,1.3-0.3c0.3-0.1,0.6-0.2,1-0.3v6c-1,0.3-2,0.5-3,0.7v-6C37.3,35.9,37.5,35.9,37.8,35.8z M42,34.6
		c0.1,0,0.1,0,0.2-0.1c0.4-0.1,0.7-0.3,1.1-0.4c0.2-0.1,0.5-0.2,0.7-0.3v6c-0.6,0.3-1.3,0.5-2,0.8L42,34.6L42,34.6z M46,38.9v-5.8
		c0.7-0.2,1.4-0.4,2-0.7v5.2C47.4,38,46.7,38.5,46,38.9z M52,31.4c0,0.8-0.2,1.5-0.5,2.2l-0.1,0.2c-0.3,0.6-0.7,1.2-1.2,1.8
		c-0.1,0.1-0.1,0.1-0.2,0.2c0,0,0,0,0,0v-4.3c0.7-0.3,1.4-0.6,2-1V31.4z M6,31.8C6,31.8,6.1,31.8,6,31.8c0.4,0.3,0.8,0.5,1.2,0.7
		c0.1,0.1,0.2,0.1,0.3,0.2c0.2,0.1,0.3,0.2,0.5,0.3V38H6.6c-0.2-0.1-0.4-0.3-0.6-0.4V31.8z M16,48.9c0.6,0.3,1.3,0.5,2,0.8v6
		c-0.7-0.2-1.4-0.5-2-0.8V48.9z M20,50.3c1,0.3,2,0.5,3,0.7v6c-1-0.2-2-0.5-3-0.7V50.3z M25,51.4c0.2,0,0.3,0,0.5,0.1
		c0.2,0,0.5,0.1,0.7,0.1c0.4,0.1,0.8,0.1,1.1,0.1c0.4,0,0.8,0.1,1.1,0.1c0.2,0,0.3,0,0.5,0v6c-1.4-0.1-2.7-0.3-4-0.5V51.4z M57,18.3
		v3.2c0,1.6-0.7,3.1-2,4.4v-5.6c0.1,0,0.1-0.1,0.2-0.1c0.1-0.1,0.1-0.1,0.2-0.2c0.2-0.2,0.5-0.4,0.7-0.7c0.1-0.1,0.1-0.1,0.2-0.2
		C56.5,18.9,56.7,18.6,57,18.3C57,18.3,57,18.3,57,18.3z M32,2c14,0,25,4.8,25,11c0,6.4-11.7,12-25,12S7,19.4,7,13C7,6.8,18,2,32,2z
		 M2,31.4v-3.2c0,0,0,0,0.1,0.1c0.2,0.3,0.5,0.5,0.7,0.8c0.1,0.1,0.1,0.1,0.2,0.2c0.2,0.2,0.5,0.5,0.7,0.7c0.1,0.1,0.1,0.1,0.2,0.2
		c0.1,0.1,0.1,0.1,0.2,0.1v5.6C2.7,34.5,2,33,2,31.4z M8,46.4v-3.2c0.6,0.7,1.2,1.4,2,2v5.6C8.7,49.5,8,48,8,46.4z M31,58v-6
		c0,0,0.1,0,0.1,0c0.6,0,1.2,0,1.9,0c0.6,0,1.2,0,1.9,0c0,0,0.1,0,0.1,0v6c-0.7,0-1.3,0-2,0S31.7,58,31,58z M58,43.3v3.2
		c0,1.6-0.7,3.1-2,4.4v-5.6c0.1,0,0.1-0.1,0.2-0.1c0.1-0.1,0.1-0.1,0.2-0.2c0.2-0.2,0.5-0.4,0.7-0.7c0.1-0.1,0.1-0.1,0.2-0.2
		C57.5,43.9,57.7,43.6,58,43.3C58,43.3,58,43.3,58,43.3z"/>
	<path class="st0" d="M19.6,21.3l7.5-2.7l0-0.1c-2-0.9-2.9-2.2-3.2-3.4c-0.5-0.2-0.8-0.5-1.1-0.9c-0.3-0.4-0.3-0.9-0.2-1.4l0.2-0.6
		c0.2-0.6,0.8-1.2,1.6-1.5c0.3-0.5,0.6-1,1-1.4c0.2-0.2,0.3-0.3,0.4-0.4c0,0,0,0,0,0c0,0,0,0,0,0c0-0.3-0.1-0.5-0.1-0.7
		C25.9,7.5,26.4,7,27,7c0.3,0,0.5,0.1,0.7,0.2c0,0,0.2,0.1,0.6,0.3c0.7,0.3,1.8,0.4,2.9,0.3c0.2,0,0.3,0,0.5,0
		c2.5,0,5.8,0.3,7.3,2.8c0.8,0.3,1.4,0.9,1.6,1.5l0.2,0.6c0.1,0.5,0.1,1-0.2,1.4c-0.2,0.4-0.6,0.7-1.1,0.9c-0.3,1.2-1.2,2.5-3.2,3.4
		l0,0.1l7.5,2.8c6.8-1.9,11-5.3,11-8.4c0-4.4-8.6-9-23-9S9,8.6,9,13C9,16.1,13,19.4,19.6,21.3z"/>
</g>
</svg>
