<?xml version="1.0" encoding="utf-8"?>
<!-- Generator: Adobe Illustrator 23.0.3, SVG Export Plug-In . SVG Version: 6.00 Build 0)  -->
<svg version="1.1" id="Capa_1" xmlns="http://www.w3.org/2000/svg" xmlns:xlink="http://www.w3.org/1999/xlink" x="0px" y="0px"
	 viewBox="0 0 33 33" style="enable-background:new 0 0 33 33;" xml:space="preserve">
<style type="text/css">
	.st0{fill:#FFFFFF;}
</style>
<path class="st0" d="M23.6,7.7l-6.9-5.8c-0.1-0.1-0.3-0.1-0.4,0L9.4,7.7l-6.5,5.5c-0.2,0.2-0.1,0.5,0.2,0.5h1.8
	c0.1,0,0.2,0.1,0.2,0.2V31c0,0.1,0.1,0.2,0.2,0.2h7.2c0.1,0,0.2-0.1,0.2-0.2v-9.7c0-0.2,0.1-0.3,0.3-0.3h7.2c0.2,0,0.3,0.1,0.3,0.3
	V31c0,0.1,0.1,0.2,0.2,0.2h7.2c0.1,0,0.2-0.1,0.2-0.2V13.9c0-0.1,0.1-0.2,0.2-0.2H30c0.3,0,0.4-0.3,0.2-0.5L23.6,7.7z"/>
</svg>
