<?xml version="1.0" encoding="utf-8"?>
<!-- Generator: Adobe Illustrator 23.0.3, SVG Export Plug-In . SVG Version: 6.00 Build 0)  -->
<svg version="1.1" id="Capa_1" xmlns="http://www.w3.org/2000/svg" xmlns:xlink="http://www.w3.org/1999/xlink" x="0px" y="0px"
	 viewBox="0 0 32 32" style="enable-background:new 0 0 32 32;" xml:space="preserve">
<style type="text/css">
	.st0{fill:#FFFFFF;}
</style>
<g>
	<g>
		<path class="st0" d="M28.3,26c-1.3-2-2-4.3-2-6.6l0-6.4c0-2.4-0.7-4.8-2.3-6.7c-1.7-2.1-4.2-3.5-6.8-3.8V1.2C17.2,0.6,16.6,0,16,0
			h0c-0.7,0-1.2,0.6-1.2,1.2v1.3c-5.1,0.6-9,5-9,10.3v6.6c0,2.3-0.7,4.6-2,6.6l-1.8,2.7c-0.2,0.3,0,0.8,0.4,0.8h10.2
			C13,31,14.4,32,16,32s3-1,3.5-2.5h10.2c0.4,0,0.6-0.4,0.4-0.8L28.3,26z M6,27.1c1.5-2.3,2.2-4.9,2.2-7.7v-6.6
			c0-4.3,3.5-7.9,7.8-7.9c0,0,0,0,0,0c2.1,0,4,0.8,5.5,2.3c1.5,1.5,2.3,3.4,2.3,5.5v6.7c0,2.7,0.8,5.4,2.2,7.7H6z"/>
	</g>
</g>
</svg>
