<?xml version="1.0" encoding="utf-8"?>
<!-- Generator: Adobe Illustrator 23.0.3, SVG Export Plug-In . SVG Version: 6.00 Build 0)  -->
<svg version="1.1" id="Capa_1" xmlns="http://www.w3.org/2000/svg" xmlns:xlink="http://www.w3.org/1999/xlink" x="0px" y="0px"
	 viewBox="0 0 32 32" style="enable-background:new 0 0 32 32;" xml:space="preserve">
<style type="text/css">
	.st0{fill:#FFFFFF;}
</style>
<g>
	<g>
		<path class="st0" d="M27.3,20.7c-1.7-1.7-3.8-3-6.1-3.8c2.4-1.7,4-4.5,4-7.6C25.2,4.1,21.1,0,16,0S6.8,4.1,6.8,9.3
			c0,3.2,1.6,6,4,7.6c-2.3,0.8-4.3,2.1-6.1,3.8c-3,3-4.7,7-4.7,11.3h2.5c0-7.4,6.1-13.5,13.5-13.5S29.5,24.6,29.5,32H32
			C32,27.7,30.3,23.7,27.3,20.7z M16,16c-3.7,0-6.7-3-6.7-6.7s3-6.7,6.7-6.7s6.7,3,6.7,6.7S19.7,16,16,16z"/>
	</g>
</g>
<circle class="st0" cx="16" cy="9.3" r="7.2"/>
<path class="st0" d="M30.2,32c0-7.9-6.4-14.2-14.2-14.2S1.8,24.1,1.8,32H30.2z"/>
</svg>
